<?xml version="1.0" ?><!DOCTYPE svg  PUBLIC '-//W3C//DTD SVG 1.1//EN'  'http://www.w3.org/Graphics/SVG/1.1/DTD/svg11.dtd'><svg enable-background="new 0 0 500 500" height="500px" id="Layer_1" fill="#333333" version="1.1" viewBox="0 0 500 500" width="500px" xml:space="preserve" xmlns="http://www.w3.org/2000/svg" xmlns:xlink="http://www.w3.org/1999/xlink"><path clip-rule="evenodd" d="M31.949,431.711c0,20.078,16.264,36.34,36.34,36.34h363.421  c20.078,0,36.34-16.262,36.34-36.34V113.718c0-20.079-16.262-36.343-36.34-36.343h-36.345V54.662  c0-12.536-10.176-22.713-22.711-22.713c-12.537,0-22.717,10.177-22.717,22.713v22.713h-36.34V54.662  c0-12.536-10.179-22.713-22.715-22.713s-22.712,10.177-22.712,22.713v22.713H231.83V54.662c0-12.536-10.177-22.713-22.713-22.713  c-12.539,0-22.716,10.177-22.716,22.713v22.713h-36.34V54.662c0-12.536-10.177-22.713-22.715-22.713  c-12.536,0-22.713,10.177-22.713,22.713v22.713H68.29c-20.077,0-36.34,16.264-36.34,36.343V431.711z M97.367,122.802h7.266v31.799  c0,12.538,10.177,22.715,22.713,22.715c12.539,0,22.715-10.177,22.715-22.715v-31.799h36.34v31.799  c0,12.538,10.177,22.715,22.716,22.715c12.536,0,22.713-10.177,22.713-22.715v-31.799h36.342v31.799  c0,12.538,10.176,22.715,22.712,22.715s22.715-10.177,22.715-22.715v-31.799h36.34v31.799c0,12.538,10.18,22.715,22.717,22.715  c12.535,0,22.711-10.177,22.711-22.715v-31.799h7.268c11.084,0,19.99,8.909,19.99,19.991v96.302c0,11.082-8.906,19.991-19.99,19.991  H97.367c-11.086,0-19.991-8.909-19.991-19.991v-96.302C77.375,131.711,86.28,122.802,97.367,122.802z" /></svg>